<mxfile host="drawio-plugin" modified="2023-03-28T20:45:17.957Z" agent="5.0 (Windows NT 6.2; Win64; x64) AppleWebKit/537.36 (KHTML, like Gecko) Chrome/104.0.5112.102 Safari/537.36" etag="HoxXt833jX3zPDGajLez" version="20.5.3" type="embed"><diagram id="kgpKYQtTHZ0yAKxKKP6v" name="Page-1"><mxGraphModel dx="2870" dy="613" grid="1" gridSize="10" guides="1" tooltips="1" connect="1" arrows="1" fold="1" page="1" pageScale="1" pageWidth="2000" pageHeight="1100" math="0" shadow="0"><root><mxCell id="0"/><mxCell id="1" parent="0"/><mxCell id="3nuBFxr9cyL0pnOWT2aG-1" value="Client" style="shape=umlLifeline;perimeter=lifelinePerimeter;container=1;collapsible=0;recursiveResize=0;rounded=0;shadow=0;strokeWidth=1;" parent="1" vertex="1"><mxGeometry x="80" y="80" width="360" height="610" as="geometry"/></mxCell><mxCell id="3nuBFxr9cyL0pnOWT2aG-2" value="" style="points=[];perimeter=orthogonalPerimeter;rounded=0;shadow=0;strokeWidth=1;" parent="3nuBFxr9cyL0pnOWT2aG-1" vertex="1"><mxGeometry x="45" y="90" width="10" height="480" as="geometry"/></mxCell><mxCell id="xd97Cj7OGT5LDfM5PxOL-47" value="Ready to Play" style="html=1;verticalAlign=bottom;endArrow=block;rounded=0;" parent="3nuBFxr9cyL0pnOWT2aG-1" target="3nuBFxr9cyL0pnOWT2aG-6" edge="1"><mxGeometry width="80" relative="1" as="geometry"><mxPoint x="55" y="470" as="sourcePoint"/><mxPoint x="135" y="470" as="targetPoint"/></mxGeometry></mxCell><mxCell id="xd97Cj7OGT5LDfM5PxOL-17" value="Loop status = TAKEN" style="shape=umlFrame;whiteSpace=wrap;html=1;width=110;height=35;gradientColor=none;" parent="3nuBFxr9cyL0pnOWT2aG-1" vertex="1"><mxGeometry x="-50" y="150" width="410" height="285" as="geometry"/></mxCell><mxCell id="xd97Cj7OGT5LDfM5PxOL-23" value="Break&lt;br&gt;status = NOT_TAKEN" style="shape=umlFrame;whiteSpace=wrap;html=1;width=140;height=40;" parent="3nuBFxr9cyL0pnOWT2aG-1" vertex="1"><mxGeometry x="-22.5" y="230" width="355" height="80" as="geometry"/></mxCell><mxCell id="3nuBFxr9cyL0pnOWT2aG-5" value="Server" style="shape=umlLifeline;perimeter=lifelinePerimeter;container=1;collapsible=0;recursiveResize=0;rounded=0;shadow=0;strokeWidth=1;" parent="1" vertex="1"><mxGeometry x="260" y="80" width="190" height="610" as="geometry"/></mxCell><mxCell id="3nuBFxr9cyL0pnOWT2aG-6" value="" style="points=[];perimeter=orthogonalPerimeter;rounded=0;shadow=0;strokeWidth=1;" parent="3nuBFxr9cyL0pnOWT2aG-5" vertex="1"><mxGeometry x="90" y="70" width="10" height="500" as="geometry"/></mxCell><mxCell id="xd97Cj7OGT5LDfM5PxOL-19" value="Propose Login" style="html=1;verticalAlign=bottom;endArrow=block;rounded=0;" parent="3nuBFxr9cyL0pnOWT2aG-5" target="3nuBFxr9cyL0pnOWT2aG-6" edge="1"><mxGeometry width="80" relative="1" as="geometry"><mxPoint x="-125" y="190" as="sourcePoint"/><mxPoint x="-45" y="190" as="targetPoint"/></mxGeometry></mxCell><mxCell id="xd97Cj7OGT5LDfM5PxOL-20" value="Nickname Status" style="html=1;verticalAlign=bottom;endArrow=open;rounded=0;dashed=1;endFill=0;" parent="3nuBFxr9cyL0pnOWT2aG-5" source="3nuBFxr9cyL0pnOWT2aG-6" edge="1"><mxGeometry width="80" relative="1" as="geometry"><mxPoint x="-65" y="220" as="sourcePoint"/><mxPoint x="-125" y="220" as="targetPoint"/></mxGeometry></mxCell><mxCell id="xd97Cj7OGT5LDfM5PxOL-45" value="Request New Data" style="html=1;verticalAlign=bottom;endArrow=block;rounded=0;endFill=1;" parent="3nuBFxr9cyL0pnOWT2aG-5" edge="1"><mxGeometry relative="1" as="geometry"><mxPoint x="-125.00000000000011" y="279.99999999999983" as="sourcePoint"/><mxPoint x="90" y="280.2" as="targetPoint"/></mxGeometry></mxCell><mxCell id="xd97Cj7OGT5LDfM5PxOL-46" value="Send Game Info" style="html=1;verticalAlign=bottom;endArrow=open;dashed=1;endSize=8;rounded=0;" parent="3nuBFxr9cyL0pnOWT2aG-5" edge="1"><mxGeometry x="-0.0013" relative="1" as="geometry"><mxPoint x="82.5" y="300" as="sourcePoint"/><mxPoint x="-127.50000000000011" y="300" as="targetPoint"/><mxPoint as="offset"/></mxGeometry></mxCell><mxCell id="3nuBFxr9cyL0pnOWT2aG-8" value="Connection" style="verticalAlign=bottom;endArrow=block;shadow=0;strokeWidth=1;" parent="1" source="3nuBFxr9cyL0pnOWT2aG-2" edge="1"><mxGeometry relative="1" as="geometry"><mxPoint x="235" y="160" as="sourcePoint"/><mxPoint x="355" y="170" as="targetPoint"/><Array as="points"><mxPoint x="235" y="170"/></Array></mxGeometry></mxCell><mxCell id="xd97Cj7OGT5LDfM5PxOL-16" value="Ack" style="html=1;verticalAlign=bottom;endArrow=open;rounded=0;dashed=1;endFill=0;" parent="1" edge="1"><mxGeometry x="0.0002" width="80" relative="1" as="geometry"><mxPoint x="345" y="200" as="sourcePoint"/><mxPoint x="135" y="200" as="targetPoint"/><Array as="points"><mxPoint x="295" y="200"/></Array><mxPoint as="offset"/></mxGeometry></mxCell><mxCell id="xd97Cj7OGT5LDfM5PxOL-41" value="Resume Match" style="html=1;verticalAlign=bottom;endArrow=open;dashed=1;endSize=8;rounded=0;" parent="1" edge="1"><mxGeometry x="-0.0013" relative="1" as="geometry"><mxPoint x="342.5" y="460" as="sourcePoint"/><mxPoint x="132.5" y="460" as="targetPoint"/><mxPoint as="offset"/></mxGeometry></mxCell><mxCell id="xd97Cj7OGT5LDfM5PxOL-42" value="Request Old Data" style="html=1;verticalAlign=bottom;endArrow=block;rounded=0;endFill=1;" parent="1" edge="1"><mxGeometry relative="1" as="geometry"><mxPoint x="137.5" y="439.8" as="sourcePoint"/><mxPoint x="352.5" y="440" as="targetPoint"/></mxGeometry></mxCell><mxCell id="xd97Cj7OGT5LDfM5PxOL-49" value="Client" style="shape=umlLifeline;perimeter=lifelinePerimeter;container=1;collapsible=0;recursiveResize=0;rounded=0;shadow=0;strokeWidth=1;" parent="1" vertex="1"><mxGeometry x="640" y="80" width="100" height="320" as="geometry"/></mxCell><mxCell id="xd97Cj7OGT5LDfM5PxOL-50" value="" style="points=[];perimeter=orthogonalPerimeter;rounded=0;shadow=0;strokeWidth=1;" parent="xd97Cj7OGT5LDfM5PxOL-49" vertex="1"><mxGeometry x="45" y="70" width="10" height="210" as="geometry"/></mxCell><mxCell id="xd97Cj7OGT5LDfM5PxOL-52" value="Server" style="shape=umlLifeline;perimeter=lifelinePerimeter;container=1;collapsible=0;recursiveResize=0;rounded=0;shadow=0;strokeWidth=1;" parent="1" vertex="1"><mxGeometry x="840" y="80" width="110" height="320" as="geometry"/></mxCell><mxCell id="xd97Cj7OGT5LDfM5PxOL-53" value="" style="points=[];perimeter=orthogonalPerimeter;rounded=0;shadow=0;strokeWidth=1;" parent="xd97Cj7OGT5LDfM5PxOL-52" vertex="1"><mxGeometry x="50" y="70" width="10" height="200" as="geometry"/></mxCell><mxCell id="xd97Cj7OGT5LDfM5PxOL-72" value="Alt&lt;br&gt;state = NOT_ACTIVE" style="shape=umlFrame;whiteSpace=wrap;html=1;fillStyle=auto;fillColor=default;width=140;height=30;" parent="xd97Cj7OGT5LDfM5PxOL-52" vertex="1"><mxGeometry x="-190" y="105" width="300" height="110" as="geometry"/></mxCell><mxCell id="xd97Cj7OGT5LDfM5PxOL-59" value="Send Updated Board" style="verticalAlign=bottom;endArrow=block;shadow=0;strokeWidth=1;" parent="1" source="xd97Cj7OGT5LDfM5PxOL-50" edge="1"><mxGeometry relative="1" as="geometry"><mxPoint x="795" y="160" as="sourcePoint"/><mxPoint x="890" y="170" as="targetPoint"/><Array as="points"><mxPoint x="795" y="170"/></Array><mxPoint as="offset"/></mxGeometry></mxCell><mxCell id="xd97Cj7OGT5LDfM5PxOL-64" value="Notify Updated Board" style="html=1;verticalAlign=bottom;endArrow=open;dashed=1;endSize=8;rounded=0;exitX=-0.189;exitY=0.503;exitDx=0;exitDy=0;exitPerimeter=0;" parent="1" source="xd97Cj7OGT5LDfM5PxOL-53" edge="1"><mxGeometry x="-0.0054" y="-10" relative="1" as="geometry"><mxPoint x="890" y="270" as="sourcePoint"/><mxPoint x="690" y="250" as="targetPoint"/><Array as="points"><mxPoint x="790" y="250"/></Array><mxPoint as="offset"/></mxGeometry></mxCell><mxCell id="xd97Cj7OGT5LDfM5PxOL-73" value="Client" style="shape=umlLifeline;perimeter=lifelinePerimeter;container=1;collapsible=0;recursiveResize=0;rounded=0;shadow=0;strokeWidth=1;" parent="1" vertex="1"><mxGeometry x="1120" y="80" width="100" height="320" as="geometry"/></mxCell><mxCell id="xd97Cj7OGT5LDfM5PxOL-74" value="" style="points=[];perimeter=orthogonalPerimeter;rounded=0;shadow=0;strokeWidth=1;" parent="xd97Cj7OGT5LDfM5PxOL-73" vertex="1"><mxGeometry x="45" y="70" width="10" height="210" as="geometry"/></mxCell><mxCell id="xd97Cj7OGT5LDfM5PxOL-75" value="Server" style="shape=umlLifeline;perimeter=lifelinePerimeter;container=1;collapsible=0;recursiveResize=0;rounded=0;shadow=0;strokeWidth=1;" parent="1" vertex="1"><mxGeometry x="1320" y="80" width="110" height="320" as="geometry"/></mxCell><mxCell id="xd97Cj7OGT5LDfM5PxOL-76" value="" style="points=[];perimeter=orthogonalPerimeter;rounded=0;shadow=0;strokeWidth=1;" parent="xd97Cj7OGT5LDfM5PxOL-75" vertex="1"><mxGeometry x="50" y="70" width="10" height="200" as="geometry"/></mxCell><mxCell id="xd97Cj7OGT5LDfM5PxOL-77" value="Alt&lt;br&gt;state = NOT_ACTIVE" style="shape=umlFrame;whiteSpace=wrap;html=1;fillStyle=auto;fillColor=default;width=140;height=30;" parent="xd97Cj7OGT5LDfM5PxOL-75" vertex="1"><mxGeometry x="-190" y="105" width="300" height="110" as="geometry"/></mxCell><mxCell id="xd97Cj7OGT5LDfM5PxOL-78" value="Send Updated Common Obj" style="verticalAlign=bottom;endArrow=block;shadow=0;strokeWidth=1;" parent="1" source="xd97Cj7OGT5LDfM5PxOL-74" edge="1"><mxGeometry x="0.0028" relative="1" as="geometry"><mxPoint x="1275" y="160" as="sourcePoint"/><mxPoint x="1370" y="170" as="targetPoint"/><Array as="points"><mxPoint x="1275" y="170"/></Array><mxPoint as="offset"/></mxGeometry></mxCell><mxCell id="xd97Cj7OGT5LDfM5PxOL-79" value="Notify Updated Common Obj" style="html=1;verticalAlign=bottom;endArrow=open;dashed=1;endSize=8;rounded=0;exitX=-0.189;exitY=0.503;exitDx=0;exitDy=0;exitPerimeter=0;" parent="1" source="xd97Cj7OGT5LDfM5PxOL-76" edge="1"><mxGeometry x="-0.0054" y="-10" relative="1" as="geometry"><mxPoint x="1370" y="270" as="sourcePoint"/><mxPoint x="1170" y="250.0000000000001" as="targetPoint"/><Array as="points"><mxPoint x="1270" y="250"/></Array><mxPoint as="offset"/></mxGeometry></mxCell><mxCell id="xd97Cj7OGT5LDfM5PxOL-36" value="Break&lt;br&gt;status = OLD" style="shape=umlFrame;whiteSpace=wrap;html=1;fillStyle=auto;fillColor=default;width=115;height=30;swimlaneFillColor=none;" parent="1" vertex="1"><mxGeometry x="60" y="400" width="355" height="80" as="geometry"/></mxCell><mxCell id="3" value="&lt;div style=&quot;&quot;&gt;&lt;div&gt;&lt;b&gt;Login of a player in the game&lt;/b&gt;&lt;/div&gt;&lt;div&gt;Loop until the status of the nickname is TAKEN&lt;/div&gt;&lt;div&gt;The frist time the client propose a nickname, after the server return the status of the nickname (OLD, TAKEN, NOT_TAKEN):&amp;nbsp;&lt;/div&gt;&lt;div&gt;if TAKEN stay in the loop,&lt;/div&gt;&lt;div&gt;if NOT_TAKEN the client send the other data and the server send the data useful to the game,&amp;nbsp;&lt;/div&gt;&lt;div&gt;if OLD the client request the data of the player disconnected and the server resume the match for this player.&lt;/div&gt;&lt;div style=&quot;&quot;&gt;When exit the loop, the client notify the server that it is ready to play&lt;/div&gt;&lt;/div&gt;" style="text;html=1;align=left;verticalAlign=middle;resizable=0;points=[];autosize=1;strokeColor=default;fillColor=none;strokeWidth=2;" vertex="1" parent="1"><mxGeometry y="690" width="690" height="110" as="geometry"/></mxCell><mxCell id="10" value="&lt;div&gt;&lt;b&gt;&lt;i&gt;Select the cards and put in your shelfie&lt;/i&gt;&lt;/b&gt;&lt;/div&gt;&lt;div&gt;On our project, all the check about the possibility to bring&amp;nbsp;&lt;/div&gt;&lt;div style=&quot;&quot;&gt;cards from board and the deploy in the shelfie are made by the client:&amp;nbsp;&lt;/div&gt;&lt;div&gt;it is only necessary to send to the server the update of the board and the&amp;nbsp;&lt;/div&gt;&lt;div&gt;shelfie of the player that are playing, after the server send to the other&amp;nbsp;&lt;/div&gt;&lt;div&gt;client the board updated&lt;/div&gt;" style="text;html=1;align=left;verticalAlign=middle;resizable=0;points=[];autosize=1;strokeColor=default;fillColor=none;strokeWidth=2;" vertex="1" parent="1"><mxGeometry x="620" y="410" width="410" height="100" as="geometry"/></mxCell><mxCell id="11" value="&lt;div&gt;&lt;b&gt;&lt;i&gt;Common Objective completed&lt;/i&gt;&lt;/b&gt;&lt;/div&gt;&lt;div style=&quot;&quot;&gt;On our project, the points are assegnated by the client when it know&amp;nbsp;&lt;/div&gt;&lt;div&gt;that goal a common objective: the only interaction between server and&amp;nbsp;&lt;/div&gt;&lt;div&gt;client is to update the status of the common onbjective, in particular&amp;nbsp;&lt;/div&gt;&lt;div&gt;how many points a player made if he reach the objective after that moment&lt;/div&gt;" style="text;html=1;align=left;verticalAlign=middle;resizable=0;points=[];autosize=1;strokeColor=default;fillColor=none;strokeWidth=2;" vertex="1" parent="1"><mxGeometry x="1160" y="410" width="420" height="90" as="geometry"/></mxCell></root></mxGraphModel></diagram></mxfile>